<?xml version="1.0" encoding="utf-8"?>
<!-- Generator: Adobe Illustrator 25.0.0, SVG Export Plug-In . SVG Version: 6.00 Build 0)  -->
<svg version="1.1" id="Слой_1" xmlns="http://www.w3.org/2000/svg" xmlns:xlink="http://www.w3.org/1999/xlink" x="0px" y="0px"
	 viewBox="0 0 1200 430" style="enable-background:new 0 0 1200 430;" xml:space="preserve">
<g>
	<g>
		<g>
			<path d="M70.18,10.27v3.74c-12.66,0-22.44,1.72-22.44,22.72v145.83c0,19.56,6.9,26.46,19.27,26.46v3.74H0v-3.74
				c12.08,0,18.41-6.9,18.41-26.46V36.73c0-17.83-6.04-22.72-18.41-22.72v-3.74H70.18z M193.29,212.77h-30.78
				c-30.49,0-37.11-8.63-67.6-52.06c-16.4-23.58-31.93-44.01-31.93-44.01l36.24-44.01c16.4-19.27,49.76-58.11,6.9-58.68v-3.74h79.1
				v3.74c-21,0-36.82,6.9-98.95,86.58c33.65,44.87,69.03,92.33,69.03,92.33c13.23,16.97,33.94,16.11,37.97,16.11V212.77z"/>
			<path d="M344.01,194.36l3.45,1.44c-1.72,8.63-11.51,19.56-26.46,19.56c0,0-22.73,0.57-24.45-24.16
				c-4.03,13.81-20.71,24.16-40.85,24.16c0,0-32.79,0-32.79-29.63c0-28.76,24.45-35.09,73.64-47.75V121.3
				c0-29.63-14.96-46.31-37.97-35.67c-10.39,7.11-4.6,13.23-2.3,16.39c4.31,5.75,3.16,14.38-2.88,18.7
				c-5.75,4.6-14.1,3.45-18.41-2.59c-3.16-4.31-3.74-10.07-1.44-14.09c2.01-4.32,6.9-12.94,22.43-21.29
				c12.37-6.33,26.46-5.46,26.46-5.46c31.35,0,39.98,23.3,39.98,57.53v48.9c0,0-0.29,18.12,12.94,18.12
				C335.38,201.84,341.99,201.84,344.01,194.36z M248.51,179.69c0,8.34,5.18,22.72,22.73,22.72c15.25,0,22.43-10.93,25.31-17.83
				c0-0.29,0-42.86,0-42.86C263.18,149.77,248.51,162.43,248.51,179.69z"/>
			<path d="M880.02,194.36l3.45,1.44c-1.72,8.63-11.51,19.56-26.46,19.56c0,0-22.73,0.57-24.45-24.16
				c-4.03,13.81-20.71,24.16-40.85,24.16c0,0-32.79,0-32.79-29.63c0-28.76,24.45-35.09,73.64-47.75V121.3
				c0-29.63-14.96-46.31-37.97-35.67c-10.39,7.11-4.6,13.23-2.3,16.39c4.31,5.75,3.16,14.38-2.88,18.7
				c-5.75,4.6-14.1,3.45-18.41-2.59c-3.16-4.31-3.74-10.07-1.44-14.09c2.01-4.32,6.9-12.94,22.43-21.29
				c12.37-6.33,26.46-5.46,26.46-5.46c31.35,0,39.98,23.3,39.98,57.53v48.9c0,0-0.29,18.12,12.94,18.12
				C871.39,201.84,878,201.84,880.02,194.36z M784.52,179.69c0,8.34,5.18,22.72,22.73,22.72c15.25,0,22.43-10.93,25.31-17.83
				c0-0.29,0-42.86,0-42.86C799.19,149.77,784.52,162.43,784.52,179.69z"/>
			<path d="M473.75,84.26c5.75,6.9,4.89,16.69-2.01,22.44c-6.61,5.46-16.4,4.89-22.43-2.01c-4.1-11.94-21.58-8.92-30.49,10.36v71.62
				c0,16.11,1.44,20.42,11.79,23.01v3.74h-48.61v-3.74c10.93-3.16,11.51-8.05,11.51-23.01v-79.68c0-10.07-2.59-14.09-14.38-17.26
				v-3.45l39.7-8.34v30.2c10.64-19.56,27.04-27.9,38.54-29.34C462.53,78.22,469.73,79.65,473.75,84.26z"/>
			<path d="M560.41,212.77h-48.32v-3.74c10.93-3.16,11.51-8.34,11.51-23.01v-79.68c0-10.07-2.3-14.09-14.38-17.26v-3.45l39.4-8.34
				v108.73c0,16.11,1.44,20.42,11.79,23.01V212.77z M518.7,38.74c0-8.34,6.33-14.67,14.67-14.67c8.05,0,14.67,6.33,14.67,14.67
				c0,8.05-6.61,14.67-14.67,14.67C525.03,53.41,518.7,46.8,518.7,38.74z"/>
			<path d="M727.26,212.77h-48.32v-3.45c10.93-3.16,11.51-8.63,11.51-23.3v-61.84c0-19.56-10.36-32.5-29.34-32.5
				c-14.95,0-27.04,14.38-29.34,24.74v69.9c0,15.82,1.44,20.13,11.79,22.72v3.74h-48.32v-3.74c10.93-3.16,11.22-8.05,11.22-22.72
				v-80.25c0-10.07-2.3-13.81-14.38-16.97v-3.45l39.7-8.34v30.2c6.04-16.68,25.89-30.2,44.01-30.2c23.3,0,39.69,11.22,39.69,46.02
				v62.7c0,15.82,1.73,20.71,11.79,23.3V212.77z"/>
		</g>
		<g>
			<path d="M1120.47,152.94v59.83H975.79v-3.74c12.08,0,15.53-10.36,15.53-29.91V41.04c0-17.83-2.88-27.04-15.53-27.04v-3.74h140.95
				v51.78H1113c-3.45-47.46-53.21-48.04-76.51-48.04h-15.53v94.63h18.7c7.77,0,38.26,0,39.69-29.05h3.74v61.84h-3.74
				c-1.44-28.76-32.5-29.05-39.69-29.05h-18.7v96.65h13.23c25.6,0,76.51,1.44,82.55-56.09H1120.47z"/>
			<path d="M1200,212.77h-48.32v-3.74c10.93-3.16,11.51-8.05,11.51-22.72V28.39c0-10.07-2.59-14.09-14.38-16.39V8.25l39.7-7.77
				V186.3c0,15.82,1.44,20.13,11.51,22.72V212.77z"/>
		</g>
	</g>
	<g>
		<path d="M439.07,426.32l-16.13,3.01c-4.96,0.89-4.96-3.19-4.96-3.19v-9.04c-5.32,8.33-16.49,12.41-25.54,12.41
			c-25.53,0-37.06-20.39-37.06-43.44c0-27.13,17.55-41.67,40.6-41.67c8.87,0,16.31,2.84,21.99,7.09v-38.3
			c0-6.21-1.77-8.87-9.04-9.58v-1.95l21.1-3.9v117.91c0,8.69,1.95,9.22,9.04,8.87V426.32z M417.97,370.11
			c0-14.54-10.46-23.76-21.46-23.76c-11.17,0-26.06,7.45-26.06,36.7c0,27.84,10.46,41.85,26.42,41.85c11.52,0,21.1-8.33,21.1-20.74
			V370.11z"/>
		<path d="M538.88,407.17c-1.24,7.98-10.82,22.34-30.32,22.34c-21.45,0-37.23-16.84-37.23-41.67c0-26.77,16.49-43.44,37.06-43.44
			c18.26,0,33.34,12.94,33.34,40.96h-56.74c0.35,27.13,11.88,37.06,26.77,37.77c11.35,0.53,22.87-7.45,25.71-16.49L538.88,407.17z
			 M529.66,383.24c0-27.48-13.66-36.88-21.46-36.88c-10.1,0-23.23,12.06-23.23,36.88H529.66z"/>
		<path d="M643.83,405.93c-1.59,8.69-9.93,23.58-31.56,23.58c-17.9,0-38.3-13.47-38.3-42.2c0-22.34,16.13-42.91,41.67-42.91
			c19.86,0,23.93,9.22,24.65,12.23c0.71,2.3,0.53,5.14-1.42,7.09c-2.48,2.48-7.27,2.84-9.75,0.36c-2.84-2.84-3.02-7.09-0.18-9.75
			c1.42-1.42,0.89-7.98-13.3-7.98c-7.45,0-28.01,5.32-28.01,39.54c0,26.06,14.71,36.17,27.48,36.7c15.07,0.71,24.47-9.4,27.31-17.2
			L643.83,405.93z"/>
		<path d="M716.34,429.51c-26.95,0-40.25-19.33-40.25-42.55c0-23.41,13.3-42.56,40.25-42.56c27.13,0,40.25,19.15,40.25,42.56
			C756.59,410.19,743.47,429.51,716.34,429.51z M716.34,346.36c-14.01,0-26.07,8.51-26.07,40.6s12.06,40.6,26.07,40.6
			c14.01,0,25.89-8.51,25.89-40.6S730.35,346.36,716.34,346.36z"/>
		<path d="M843.29,348.66c2.48,3.9,1.42,8.87-2.48,11.35c-3.72,2.48-8.87,1.42-11.52-2.48c-1.07-1.77-9.97-7.16-19.33,8.51v48.05
			c0,9.75,0.89,10.28,7.27,11.88v1.95h-26.6v-1.95c6.74-1.95,7.09-2.84,7.09-11.88v-54.26c0-6.03-1.42-8.69-8.87-9.57v-1.77
			l21.1-4.08v17.73c5.14-10.46,16.67-17.38,25.36-17.38C838.15,344.76,841.34,346,843.29,348.66z"/>
	</g>
</g>
</svg>
